<svg width="17" height="21" viewBox="0 0 17 21"  xmlns="http://www.w3.org/2000/svg">
    <path fill-rule="evenodd" clip-rule="evenodd"
        d="M8.49998 0C5.3918 0 2.87212 2.58202 2.87212 5.76709C2.87212 8.39669 4.58957 10.6152 6.93774 11.3091C5.08399 11.5406 3.49401 12.2125 2.29625 13.4221C0.771817 14.9617 0 17.2535 0 20.2443C0 20.6618 0.330173 21 0.737444 21C1.14473 21 1.47489 20.6618 1.47489 20.2443C1.47489 17.5079 2.17793 15.6636 3.33152 14.4985C4.48729 13.3313 6.21273 12.7274 8.49991 12.7274C10.7871 12.7274 12.5126 13.3313 13.6685 14.4986C14.822 15.6636 15.5251 17.5079 15.5251 20.2443C15.5251 20.6618 15.8552 21 16.2626 21C16.6698 21.0002 17 20.6618 17 20.2445C17 17.2535 16.2281 14.9617 14.7037 13.4221C13.5059 12.2125 11.9159 11.5406 10.0622 11.3091C12.4103 10.6153 14.1278 8.39671 14.1278 5.76709C14.1278 2.58202 11.6082 0 8.49998 0ZM4.34701 5.76709C4.34701 3.41673 6.20636 1.51138 8.49998 1.51138C10.7936 1.51138 12.653 3.41673 12.653 5.76709C12.653 8.11745 10.7936 10.0228 8.49998 10.0228C6.20636 10.0228 4.34701 8.11745 4.34701 5.76709Z"
         />
</svg>