<svg width="40" height="40" viewBox="0 0 40 40" fill="none" xmlns="http://www.w3.org/2000/svg">
    <path d="M40 20C40 31.0457 31.0457 40 20 40C8.9543 40 0 31.0457 0 20C0 8.9543 8.9543 0 20 0C31.0457 0 40 8.9543 40 20Z" fill="#C5F1FF"/>
    <path fill-rule="evenodd" clip-rule="evenodd" d="M19.5 7C16.3918 7 13.8721 9.58202 13.8721 12.7671C13.8721 15.3967 15.5896 17.6152 17.9377 18.3091C16.084 18.5406 14.494 19.2125 13.2962 20.4221C11.7718 21.9617 11 24.2535 11 27.2443C11 27.6618 11.3302 28 11.7374 28C12.1447 28 12.4749 27.6618 12.4749 27.2443C12.4749 24.5079 13.1779 22.6636 14.3315 21.4985C15.4873 20.3313 17.2127 19.7274 19.4999 19.7274C21.7871 19.7274 23.5126 20.3313 24.6685 21.4986C25.822 22.6636 26.5251 24.5079 26.5251 27.2443C26.5251 27.6618 26.8552 28 27.2626 28C27.6698 28.0002 28 27.6618 28 27.2445C28 24.2535 27.2281 21.9617 25.7037 20.4221C24.5059 19.2125 22.9159 18.5406 21.0622 18.3091C23.4103 17.6153 25.1278 15.3967 25.1278 12.7671C25.1278 9.58202 22.6082 7 19.5 7ZM15.347 12.7671C15.347 10.4167 17.2064 8.51138 19.5 8.51138C21.7936 8.51138 23.653 10.4167 23.653 12.7671C23.653 15.1175 21.7936 17.0228 19.5 17.0228C17.2064 17.0228 15.347 15.1175 15.347 12.7671Z" fill="black"/>
    <path d="M34 27C34 29.7614 31.7614 32 29 32C26.2386 32 24 29.7614 24 27C24 24.2386 26.2386 22 29 22C31.7614 22 34 24.2386 34 27Z" fill="#7ED97E"/>
    </svg>
    