<svg width="16" height="3" viewBox="0 0 16 3" fill="none" xmlns="http://www.w3.org/2000/svg">
    <path fill-rule="evenodd" clip-rule="evenodd"
        d="M1.4359 -1.52588e-05C0.642872 -1.52588e-05 0 0.642857 0 1.43588C0 2.22891 0.642872 2.87178 1.4359 2.87178C2.22892 2.87178 2.87179 2.22891 2.87179 1.43588C2.87179 0.642857 2.22892 -1.52588e-05 1.4359 -1.52588e-05ZM8 -1.52588e-05C7.20697 -1.52588e-05 6.5641 0.642857 6.5641 1.43588C6.5641 2.22891 7.20697 2.87178 8 2.87178C8.79303 2.87178 9.4359 2.22891 9.4359 1.43588C9.4359 0.642857 8.79303 -1.52588e-05 8 -1.52588e-05ZM14.5641 -1.52588e-05C13.7711 -1.52588e-05 13.1282 0.642857 13.1282 1.43588C13.1282 2.22891 13.7711 2.87178 14.5641 2.87178C15.3571 2.87178 16 2.22891 16 1.43588C16 0.642857 15.3571 -1.52588e-05 14.5641 -1.52588e-05Z"
        fill="#4F4F4F" />
</svg>